<svg width="23" height="22" viewBox="0 0 23 22" fill="none" xmlns="http://www.w3.org/2000/svg">
<mask id="mask0_340_263" style="mask-type:alpha" maskUnits="userSpaceOnUse" x="0" y="0" width="23" height="22">
<rect x="0.333008" width="22" height="22" fill="#D9D9D9"/>
</mask>
<g mask="url(#mask0_340_263)">
<path d="M10.6458 15.3542H12.0208V10.0834H10.6458V15.3542ZM11.3333 8.51454C11.5431 8.51454 11.7189 8.44357 11.8609 8.30164C12.0028 8.15971 12.0738 7.98387 12.0738 7.7741C12.0738 7.56434 12.0028 7.38849 11.8609 7.24656C11.7189 7.10478 11.5431 7.03389 11.3333 7.03389C11.1236 7.03389 10.9477 7.10478 10.8058 7.24656C10.6639 7.38849 10.5929 7.56434 10.5929 7.7741C10.5929 7.98387 10.6639 8.15971 10.8058 8.30164C10.9477 8.44357 11.1236 8.51454 11.3333 8.51454ZM11.3349 19.7084C10.1304 19.7084 8.99828 19.4799 7.93846 19.0227C6.87864 18.5656 5.95678 17.9453 5.17287 17.1617C4.38897 16.3781 3.76831 15.4566 3.3109 14.3972C2.85363 13.3379 2.625 12.206 2.625 11.0017C2.625 9.79719 2.85356 8.66503 3.31067 7.60521C3.76778 6.54539 4.38813 5.62353 5.17173 4.83962C5.95533 4.05572 6.87681 3.43506 7.93617 2.97764C8.99553 2.52038 10.1274 2.29175 11.3317 2.29175C12.5362 2.29175 13.6684 2.5203 14.7282 2.97741C15.788 3.43453 16.7099 4.05488 17.4938 4.83848C18.2777 5.62207 18.8984 6.54355 19.3558 7.60291C19.813 8.66228 20.0417 9.79413 20.0417 10.9985C20.0417 12.203 19.8131 13.3351 19.356 14.395C18.8989 15.4548 18.2785 16.3766 17.4949 17.1605C16.7113 17.9444 15.7899 18.5651 14.7305 19.0225C13.6711 19.4798 12.5393 19.7084 11.3349 19.7084ZM11.3333 18.3334C13.3806 18.3334 15.1146 17.623 16.5354 16.2022C17.9562 14.7813 18.6667 13.0473 18.6667 11.0001C18.6667 8.95286 17.9562 7.21883 16.5354 5.798C15.1146 4.37716 13.3806 3.66675 11.3333 3.66675C9.28611 3.66675 7.55208 4.37716 6.13125 5.798C4.71042 7.21883 4 8.95286 4 11.0001C4 13.0473 4.71042 14.7813 6.13125 16.2022C7.55208 17.623 9.28611 18.3334 11.3333 18.3334Z" fill="#757575"/>
</g>
</svg>
